HIERARCHY
ROOT root
{
	OFFSET 0.000000 0.000000 0.000000
	CHANNELS 6 Xposition Yposition Zposition Zrotation Yrotation Xrotation
	JOINT lhip
	{
		OFFSET 0.058581 -0.082280 -0.017664
		CHANNELS 3 Zrotation Yrotation Xrotation
		JOINT lknee
		{
			OFFSET 0.043451 -0.386469 0.008037
			CHANNELS 3 Zrotation Yrotation Xrotation
			JOINT lankle
			{
				OFFSET -0.014790 -0.426874 -0.037428
				CHANNELS 3 Zrotation Yrotation Xrotation
				JOINT ltoe
				{
					OFFSET 0.041054 -0.060286 0.122042
					CHANNELS 3 Zrotation Yrotation Xrotation
					End Site
					{
						OFFSET 0.000000 0.000000 0.000000
					}
				}
			}
		}
	}
	JOINT rhip
	{
		OFFSET -0.060310 -0.090513 -0.013543
		CHANNELS 3 Zrotation Yrotation Xrotation
		JOINT rknee
		{
			OFFSET -0.043257 -0.383688 -0.004843
			CHANNELS 3 Zrotation Yrotation Xrotation
			JOINT rankle
			{
				OFFSET 0.019056 -0.420046 -0.034562
				CHANNELS 3 Zrotation Yrotation Xrotation
				JOINT rtoe
				{
					OFFSET -0.034840 -0.062106 0.130323
					CHANNELS 3 Zrotation Yrotation Xrotation
					End Site
					{
						OFFSET 0.000000 0.000000 0.000000
					}
				}
			}
		}
	}
	JOINT lowerback
	{
		OFFSET 0.004439 0.124404 -0.038385
		CHANNELS 3 Zrotation Yrotation Xrotation
		JOINT upperback
		{
			OFFSET 0.004488 0.137956 0.026820
			CHANNELS 3 Zrotation Yrotation Xrotation
			JOINT chest
			{
				OFFSET -0.002265 0.056032 0.002855
				CHANNELS 3 Zrotation Yrotation Xrotation
				JOINT lowerneck
				{
					OFFSET -0.013390 0.211636 -0.033468
					CHANNELS 3 Zrotation Yrotation Xrotation
					JOINT upperneck
					{
						OFFSET 0.010113 0.088937 0.050410
						CHANNELS 3 Zrotation Yrotation Xrotation
						End Site
						{
							OFFSET 0.000000 0.000000 0.000000
						}
					}
				}
				JOINT lclavicle
				{
					OFFSET 0.071702 0.114000 -0.018898
					CHANNELS 3 Zrotation Yrotation Xrotation
					JOINT lshoulder
					{
						OFFSET 0.122921 0.045205 -0.019046
						CHANNELS 3 Zrotation Yrotation Xrotation
						JOINT lelbow
						{
							OFFSET 0.255332 -0.015649 -0.022946
							CHANNELS 3 Zrotation Yrotation Xrotation
							JOINT lwrist
							{
								OFFSET 0.265709 0.012698 -0.007375
								CHANNELS 3 Zrotation Yrotation Xrotation
								End Site
								{
									OFFSET 0.000000 0.000000 0.000000
								}
							}
						}
					}
				}
				JOINT rclavicle
				{
					OFFSET -0.082954 0.112472 -0.023707
					CHANNELS 3 Zrotation Yrotation Xrotation
					JOINT rshoulder
					{
						OFFSET -0.113228 0.046853 -0.008472
						CHANNELS 3 Zrotation Yrotation Xrotation
						JOINT relbow
						{
							OFFSET -0.260127 -0.014369 -0.031269
							CHANNELS 3 Zrotation Yrotation Xrotation
							JOINT rwrist
							{
								OFFSET -0.269108 0.006794 -0.006027
								CHANNELS 3 Zrotation Yrotation Xrotation
								End Site
								{
									OFFSET 0.000000 0.000000 0.000000
								}
							}
						}
					}
				}
			}
		}
	}
}
MOTION
Frames: 6
Frame Time: 0.033333
1.295619 0.756495 0.992233 -95.785552 2.183256 87.640458 3.250967 -2.117952 1.458560 -3.791154 -6.743316 5.445464 5.554021 7.626685 -17.955243 0.000000 -0.000000 0.000000 1.775626 -2.655267 0.292334 2.990817 -2.321690 9.872227 0.614339 -3.416382 -8.831215 0.000000 -0.000000 0.000000 -2.998917 5.835918 6.259958 3.516234 -0.090923 6.171554 1.690281 -1.268530 1.634291 1.633121 -1.537688 16.048822 0.012689 -4.130953 14.318727 -25.084648 4.322227 7.280969 -65.418788 -7.306951 9.608369 16.047046 -29.067480 7.203498 -3.627666 -11.193786 -7.765146 23.917371 -4.926230 5.718857 61.395481 1.081783 6.328670 -24.179657 30.501978 -4.772236 5.820123 7.224458 -5.569266 
1.294062 0.756938 0.992202 -95.413547 2.076766 87.345084 3.067011 -2.201833 1.825083 -3.681585 -7.072091 5.548798 5.470797 7.745121 -18.058053 0.000000 -0.000000 0.000000 1.697824 -2.314459 0.869543 3.052727 -2.367777 9.875060 0.928478 -4.037781 -9.591941 0.000000 -0.000000 0.000000 -2.881489 5.326403 6.614670 3.157897 -0.274367 5.879354 1.656624 -0.933787 1.902298 2.390181 0.323666 14.558725 0.889424 -2.378865 13.501135 -24.677241 4.285663 7.017236 -65.482155 -6.465554 9.595560 16.300620 -28.685778 7.542434 -3.134147 -11.002642 -7.856126 24.049396 -4.669017 5.767351 61.578099 0.655269 6.179949 -24.109724 28.983120 -4.790367 5.383966 6.906626 -5.643500 
1.292729 0.757538 0.992375 -95.292691 2.015449 87.173220 3.011484 -2.181344 2.104075 -3.663711 -7.253635 5.550246 5.333950 7.825462 -18.139119 0.000000 -0.000000 0.000000 1.620139 -2.120354 1.275361 3.226397 -2.256847 9.812245 1.581723 -4.059604 -11.478542 0.000000 -0.000000 0.000000 -2.550154 4.704413 7.077583 2.774564 -0.614249 5.391941 1.316550 -0.432625 1.822042 2.606155 0.900524 14.435004 0.945585 -2.287655 14.571422 -24.379504 4.694464 7.019111 -65.134589 -5.801507 9.172976 16.294480 -28.452751 7.744321 -3.570637 -11.148861 -7.584928 24.322911 -4.392888 6.241452 61.838391 0.371076 5.937095 -24.156587 27.669810 -4.799078 5.615439 6.642550 -5.639487 
1.291309 0.758607 0.992464 -95.306953 1.687645 87.113113 2.700379 -1.915681 2.222022 -3.675898 -7.545215 5.670182 5.145046 8.053472 -18.310781 0.000000 -0.000000 0.000000 1.217414 -2.056897 1.491460 3.408325 -1.780961 9.856421 3.483058 -3.592944 -13.360231 0.000000 -0.000000 0.000000 -2.546608 4.217197 7.318533 2.468189 -0.957861 4.879462 0.827021 0.244464 2.232083 2.977362 1.570386 13.509555 1.173265 -3.896596 17.323826 -24.026405 5.409846 6.248037 -64.555303 -5.298323 9.085292 15.863381 -27.395348 7.382788 -2.218126 -11.741479 -6.765955 25.232352 -4.645407 5.958053 61.365538 -0.058762 5.849149 -23.779592 26.606353 -4.807797 5.201137 6.802774 -5.154711 
1.290870 0.758871 0.992416 -95.225213 1.676716 87.186937 2.700740 -1.919952 2.100953 -3.682049 -7.604180 5.807584 5.170193 8.053514 -18.310316 0.000000 -0.000000 0.000000 1.222719 -2.064141 1.456011 3.419401 -1.756725 9.840990 3.526190 -3.708576 -13.294987 0.000000 -0.000000 0.000000 -2.549157 4.192420 7.218978 2.499500 -0.967386 4.835317 0.832092 0.248177 2.250388 2.965145 1.527265 13.488027 1.152037 -3.931644 17.399462 -24.038186 5.523929 6.229833 -64.448886 -5.305875 8.952714 15.927647 -27.136922 7.262251 -2.077150 -11.533149 -6.585256 25.216595 -4.777632 5.897644 61.366766 -0.238830 5.795039 -23.876759 26.461015 -4.629724 5.567996 6.611843 -4.916404 
1.290095 0.759293 0.992412 -95.113278 1.707633 87.203459 2.719209 -1.997702 2.065557 -3.629741 -7.561667 5.933318 5.184272 8.062418 -18.353168 0.000000 -0.000000 0.000000 1.269288 -1.962610 1.550722 3.468363 -1.861753 9.740619 3.517303 -3.873626 -13.277683 0.000000 -0.000000 0.000000 -2.487886 4.124977 7.146269 2.562142 -0.988535 4.792995 0.855046 0.238211 2.194572 2.963612 1.282237 13.715759 1.036263 -3.911737 17.380728 -23.991559 5.647557 6.315187 -64.343185 -5.319451 8.806909 15.949663 -27.055759 7.207978 -2.811159 -11.524874 -6.600612 25.080895 -4.874175 5.993096 61.493715 -0.337258 5.691265 -23.995267 26.162736 -4.660196 6.272566 6.365862 -4.952732 
